<svg width="142" height="48" viewBox="0 0 142 48" fill="none" xmlns="http://www.w3.org/2000/svg">
<path d="M11.2236 27.2656C8.93466 27.2656 6.94384 26.8521 5.25116 26.025C3.55848 25.1786 2.26011 23.9861 1.35607 22.4473C0.452023 20.9085 0 19.1196 0 17.0807C0 14.2531 0.528963 11.743 1.58689 9.55018C2.66405 7.35739 4.11629 5.66471 5.94362 4.47214C7.77095 3.26034 9.80024 2.65443 12.0315 2.65443C14.1089 2.65443 15.6862 3.19301 16.7633 4.27017C17.8405 5.3281 18.3791 6.73226 18.3791 8.48264C18.3791 9.65598 18.1675 10.5985 17.7443 11.3102C17.3404 12.0219 16.7537 12.3777 15.9843 12.3777C15.4457 12.3777 15.0225 12.2527 14.7148 12.0026C14.407 11.7526 14.2531 11.3871 14.2531 10.9063C14.2531 10.7331 14.2916 10.4158 14.3686 9.95412C14.484 9.37707 14.5417 8.91543 14.5417 8.5692C14.5417 6.81881 13.6088 5.94362 11.743 5.94362C10.4735 5.94362 9.26166 6.35717 8.10756 7.18428C6.95346 8.01138 6.02056 9.23281 5.30886 10.8485C4.59717 12.4451 4.24132 14.3493 4.24132 16.5613C4.24132 18.8695 4.88569 20.6584 6.17444 21.9279C7.46319 23.1782 9.36745 23.8033 11.8872 23.8033C13.1375 23.8033 14.3974 23.6494 15.6669 23.3417C16.9557 23.0147 18.3791 22.5242 19.9371 21.8702C20.2256 21.7548 20.4661 21.6971 20.6584 21.6971C20.9662 21.6971 21.197 21.8125 21.3509 22.0433C21.5047 22.2741 21.5817 22.5723 21.5817 22.9378C21.5817 24.1111 20.9469 24.9767 19.6774 25.5345C18.3117 26.1308 16.8883 26.5732 15.4072 26.8617C13.9454 27.131 12.5508 27.2656 11.2236 27.2656Z" fill="black"/>
<path d="M22.867 27.2656C21.6744 27.2656 20.7223 26.8328 20.0106 25.9673C19.2989 25.1017 18.943 23.9668 18.943 22.5627C18.943 21.0239 19.2989 19.5716 20.0106 18.2059C20.7223 16.821 21.6648 15.715 22.8381 14.8879C24.0307 14.0416 25.2906 13.6184 26.6178 13.6184C27.041 13.6184 27.3199 13.7049 27.4545 13.8781C27.6084 14.0319 27.7334 14.3205 27.8296 14.7436C28.2335 14.6667 28.6567 14.6282 29.0991 14.6282C30.0416 14.6282 30.5129 14.9648 30.5129 15.6381C30.5129 16.042 30.3686 17.0038 30.0801 18.5233C29.6377 20.7353 29.4165 22.2741 29.4165 23.1397C29.4165 23.4282 29.4838 23.6591 29.6185 23.8322C29.7723 24.0053 29.9647 24.0919 30.1955 24.0919C30.561 24.0919 31.0034 23.861 31.5227 23.3994C32.0421 22.9185 32.7442 22.1491 33.629 21.0912C33.8598 20.8219 34.1195 20.6873 34.408 20.6873C34.658 20.6873 34.8504 20.8027 34.985 21.0335C35.1389 21.2643 35.2159 21.5817 35.2159 21.9856C35.2159 22.755 35.0331 23.3513 34.6677 23.7745C33.879 24.7555 33.0423 25.5826 32.1575 26.2558C31.2727 26.929 30.4167 27.2656 29.5896 27.2656C28.9549 27.2656 28.3682 27.054 27.8296 26.6309C27.3103 26.1885 26.9159 25.5922 26.6467 24.842C25.6464 26.4578 24.3865 27.2656 22.867 27.2656ZM23.9057 24.3515C24.3288 24.3515 24.7328 24.1015 25.1175 23.6014C25.5022 23.1013 25.7811 22.4376 25.9542 21.6105L27.0217 16.3017C26.2139 16.3209 25.4637 16.6287 24.7712 17.225C24.098 17.802 23.5594 18.5714 23.1555 19.5332C22.7516 20.4949 22.5496 21.5144 22.5496 22.5915C22.5496 23.1878 22.665 23.6302 22.8958 23.9187C23.1459 24.2073 23.4825 24.3515 23.9057 24.3515Z" fill="black"/>
<path d="M35.8139 27.2656C34.9483 27.2656 34.2366 26.8713 33.6788 26.0827C33.1402 25.2748 32.8709 24.2746 32.8709 23.082C32.8709 21.6394 32.9671 20.3218 33.1594 19.1292C33.3518 17.9174 33.6692 16.6383 34.1116 15.2918C34.3039 14.7148 34.5732 14.3012 34.9194 14.0512C35.2657 13.8011 35.8139 13.6761 36.564 13.6761C36.9872 13.6761 37.2757 13.7434 37.4296 13.8781C37.6027 14.0127 37.6893 14.2147 37.6893 14.484C37.6893 14.6378 37.5835 15.1572 37.3719 16.042C37.1796 16.7537 37.0257 17.3981 36.9103 17.9751C36.5256 19.9948 36.3332 21.3412 36.3332 22.0145C36.3332 22.4184 36.3813 22.7069 36.4775 22.88C36.5737 23.0339 36.7275 23.1109 36.9391 23.1109C37.2276 23.1109 37.5835 22.8223 38.0067 22.2453C38.4491 21.6682 38.9107 20.7931 39.3916 19.6197C39.8917 18.4464 40.3726 17.0038 40.8342 15.2918C40.9881 14.7148 41.2189 14.3012 41.5267 14.0512C41.8537 13.8011 42.3345 13.6761 42.9693 13.6761C43.4117 13.6761 43.7195 13.7338 43.8926 13.8492C44.0657 13.9454 44.1522 14.1377 44.1522 14.4263C44.1522 14.9071 43.9118 16.2247 43.4309 18.3791C42.8924 20.8411 42.6231 22.3607 42.6231 22.9378C42.6231 23.3032 42.7 23.5917 42.8539 23.8033C43.0078 23.9957 43.2097 24.0919 43.4598 24.0919C43.8445 24.0919 44.2965 23.861 44.8159 23.3994C45.3544 22.9185 46.0661 22.1491 46.9509 21.0912C47.1818 20.8219 47.4414 20.6873 47.73 20.6873C47.98 20.6873 48.1724 20.8027 48.307 21.0335C48.4609 21.2643 48.5378 21.5817 48.5378 21.9856C48.5378 22.755 48.3551 23.3513 47.9896 23.7745C47.1625 24.7939 46.2681 25.6307 45.3064 26.2846C44.3638 26.9386 43.2867 27.2656 42.0749 27.2656C41.1516 27.2656 40.4687 26.9098 40.0263 26.1981C39.6032 25.4864 39.3916 24.4862 39.3916 23.1974C39.0646 24.5054 38.5741 25.5152 37.9201 26.2269C37.2661 26.9194 36.564 27.2656 35.8139 27.2656Z" fill="black"/>
<path d="M49.5163 27.2656C48.4199 27.2656 47.5255 26.8328 46.8331 25.9673C46.1598 25.1017 45.8232 23.9668 45.8232 22.5627C45.8232 21.0239 46.1791 19.5716 46.8908 18.2059C47.6025 16.821 48.545 15.715 49.7183 14.8879C50.9109 14.0416 52.1708 13.6184 53.498 13.6184C53.9212 13.6184 54.2001 13.7049 54.3347 13.8781C54.4886 14.0319 54.6136 14.3205 54.7098 14.7436C55.0753 14.6667 55.4792 14.6282 55.9216 14.6282C56.3832 14.6282 56.7391 14.7436 56.9891 14.9745C57.2392 15.2053 57.3642 15.5323 57.3642 15.9554C57.3642 16.3978 57.2681 17.1672 57.0757 18.2636C56.8641 19.437 56.7006 20.5622 56.5852 21.6394C56.4698 22.6973 56.4121 23.8899 56.4121 25.2171C56.4121 25.948 56.2582 26.477 55.9505 26.804C55.6619 27.1118 55.1811 27.2656 54.5078 27.2656C53.8538 27.2656 53.3633 27.1118 53.0363 26.804C52.7286 26.477 52.5747 25.9577 52.5747 25.246L52.6036 24.7843C52.0073 26.4385 50.9782 27.2656 49.5163 27.2656ZM50.6416 24.3515C51.1802 24.3515 51.6707 23.9764 52.1131 23.2263C52.5555 22.4761 52.9498 21.1393 53.296 19.2158L53.8442 16.3017C53.0556 16.3209 52.3246 16.6287 51.6514 17.225C50.9782 17.802 50.4396 18.5714 50.0357 19.5332C49.6317 20.4949 49.4298 21.5144 49.4298 22.5915C49.4298 23.1686 49.5356 23.611 49.7472 23.9187C49.978 24.2073 50.2761 24.3515 50.6416 24.3515ZM56.6429 11.7718C56.3352 11.7718 56.0466 11.7237 55.7773 11.6276C55.508 11.5122 55.1618 11.3102 54.7386 11.0217L51.6514 8.88658L50.3819 10.7043C50.0742 11.1275 49.6414 11.339 49.0835 11.339C48.7373 11.339 48.4392 11.2429 48.1891 11.0505C47.9583 10.8389 47.8429 10.56 47.8429 10.2138C47.8429 9.77139 48.1987 9.03084 48.9104 7.99215C49.3528 7.35739 49.7856 6.89575 50.2088 6.60723C50.632 6.29947 51.0936 6.14559 51.5937 6.14559C51.9207 6.14559 52.2092 6.19367 52.4593 6.28985C52.7286 6.38603 53.0748 6.58799 53.498 6.89575L56.5852 9.03084L57.8547 7.21313C58.1625 6.78996 58.5953 6.57838 59.1531 6.57838C59.4993 6.57838 59.7878 6.68417 60.0187 6.89575C60.2687 7.0881 60.3937 7.35739 60.3937 7.70362C60.3937 7.97291 60.2976 8.28067 60.1052 8.6269C59.9321 8.9539 59.6724 9.38669 59.3262 9.92527C58.8838 10.56 58.451 11.0313 58.0278 11.339C57.6047 11.6276 57.143 11.7718 56.6429 11.7718Z" fill="black"/>
<path d="M93.9682 20.6873C94.2182 20.6873 94.4106 20.8027 94.5452 21.0335C94.6991 21.2643 94.776 21.5817 94.776 21.9856C94.776 22.7358 94.5933 23.3321 94.2278 23.7745C93.3046 24.8901 92.3716 25.7557 91.4291 26.3712C90.4866 26.9675 89.371 27.2656 88.0822 27.2656C86.832 27.2656 85.7644 26.929 84.8796 26.2558C84.014 25.5826 83.1869 24.4285 82.3983 22.7935C81.7635 21.4855 81.2634 20.5238 80.898 19.9082C80.5325 19.2735 80.167 18.8215 79.8016 18.5522C79.4553 18.2829 79.0226 18.1194 78.5032 18.0617C78.4263 18.4656 78.2051 19.7351 77.8396 21.8702C77.6857 22.832 77.5895 23.4186 77.5511 23.6302C77.3587 24.8036 76.974 25.7076 76.397 26.3424C75.8199 26.9579 74.9447 27.2656 73.7714 27.2656C72.4826 27.2656 71.3382 26.8906 70.3379 26.1404C69.357 25.371 68.5972 24.3131 68.0586 22.9666C67.52 21.6009 67.2507 20.0525 67.2507 18.3214C67.2507 15.0899 67.8085 12.3008 68.9242 9.95412C70.059 7.60745 71.6363 5.81859 73.656 4.58755C75.6949 3.33728 78.0416 2.71214 80.696 2.71214C82.5426 2.71214 84.091 2.99105 85.3413 3.54886C86.5915 4.10668 87.5148 4.87608 88.1111 5.85706C88.7266 6.83805 89.0344 7.94406 89.0344 9.1751C89.0344 10.2523 88.7747 11.3102 88.2554 12.3489C87.7552 13.3683 86.9955 14.2724 85.976 15.061C84.9566 15.8497 83.7159 16.4363 82.254 16.821C83.1773 17.0711 83.889 17.475 84.3891 18.0328C84.8892 18.5906 85.3893 19.4081 85.8895 20.4853C86.428 21.6394 86.957 22.4857 87.4763 23.0243C88.0149 23.5629 88.6304 23.8322 89.3229 23.8322C89.9384 23.8322 90.5251 23.6302 91.0829 23.2263C91.6407 22.8031 92.3428 22.0914 93.1891 21.0912C93.42 20.8219 93.6796 20.6873 93.9682 20.6873ZM74.5216 18.0328C73.8676 18.0328 73.4155 17.8789 73.1655 17.5712C72.9347 17.2634 72.8193 16.9172 72.8193 16.5325C72.8193 16.0709 72.9635 15.7054 73.252 15.4361C73.5598 15.1668 73.906 15.0322 74.2907 15.0322H75.012C75.3198 13.1471 75.6083 11.5218 75.8776 10.1561C76.1277 8.90581 76.9356 8.28067 78.3012 8.28067C79.3976 8.28067 79.9458 8.77117 79.9458 9.75215C79.9458 9.96374 79.9362 10.1272 79.917 10.2426L79.0514 15.0322C80.0901 14.9745 81.0326 14.7244 81.879 14.282C82.7445 13.8396 83.4274 13.2241 83.9275 12.4354C84.4468 11.6468 84.7065 10.7524 84.7065 9.75215C84.7065 8.54035 84.2929 7.58821 83.4658 6.89575C82.6387 6.20329 81.4269 5.85706 79.8304 5.85706C77.9454 5.85706 76.2912 6.32832 74.8678 7.27084C73.4636 8.19412 72.3672 9.57904 71.5786 11.4256C70.79 13.2529 70.3956 15.4842 70.3956 18.1194C70.3956 19.3504 70.5207 20.4084 70.7707 21.2932C71.0208 22.178 71.3285 22.8416 71.694 23.284C72.0595 23.7264 72.4057 23.9476 72.7327 23.9476C72.9828 23.9476 73.1847 23.8226 73.3386 23.5725C73.5117 23.3225 73.6464 22.9185 73.7425 22.3607L74.5216 18.0328Z" fill="black"/>
<path d="M106.587 18.2636C106.837 18.2636 107.029 18.3887 107.164 18.6387C107.299 18.8888 107.366 19.2062 107.366 19.5909C107.366 20.5141 107.087 21.0623 106.529 21.2355C105.375 21.6394 104.106 21.8702 102.721 21.9279C102.355 23.5437 101.634 24.842 100.557 25.823C99.4795 26.7848 98.2581 27.2656 96.8924 27.2656C95.7383 27.2656 94.7477 26.9867 93.9206 26.4289C93.1127 25.8711 92.4972 25.1305 92.074 24.2073C91.6509 23.284 91.4393 22.2838 91.4393 21.2066C91.4393 19.7447 91.7182 18.4464 92.276 17.3115C92.8338 16.1574 93.6032 15.263 94.5842 14.6282C95.5652 13.9742 96.652 13.6472 97.8445 13.6472C99.3064 13.6472 100.48 14.157 101.365 15.1764C102.269 16.1766 102.798 17.4173 102.951 18.8984C103.855 18.8407 104.933 18.6483 106.183 18.3214C106.337 18.2829 106.471 18.2636 106.587 18.2636ZM97.1232 24.2073C97.7387 24.2073 98.2677 23.9572 98.7101 23.4571C99.1718 22.957 99.4795 22.2357 99.6334 21.2932C99.0371 20.8892 98.5755 20.3603 98.2485 19.7063C97.9407 19.0523 97.7868 18.3598 97.7868 17.6289C97.7868 17.3211 97.8157 17.0134 97.8734 16.7056H97.7291C96.9597 16.7056 96.3154 17.0807 95.796 17.8309C95.2959 18.5618 95.0458 19.6005 95.0458 20.9469C95.0458 22.0049 95.2478 22.8127 95.6517 23.3705C96.0749 23.9284 96.5654 24.2073 97.1232 24.2073Z" fill="black"/>
<path d="M110.4 27.2656C108.515 27.2656 107.044 26.7367 105.986 25.6787C104.947 24.6016 104.428 23.1878 104.428 21.4374C104.428 19.8794 104.736 18.5137 105.351 17.3404C105.967 16.167 106.765 15.263 107.746 14.6282C108.727 13.9935 109.756 13.6761 110.833 13.6761C111.891 13.6761 112.709 13.9935 113.286 14.6282C113.882 15.2437 114.18 16.042 114.18 17.023C114.18 17.8309 113.997 18.5137 113.632 19.0715C113.286 19.6293 112.824 19.9082 112.247 19.9082C111.881 19.9082 111.583 19.8217 111.352 19.6486C111.141 19.4755 111.035 19.235 111.035 18.9273C111.035 18.7926 111.054 18.6387 111.093 18.4656C111.131 18.2925 111.16 18.1675 111.179 18.0905C111.276 17.802 111.324 17.5327 111.324 17.2827C111.324 17.0326 111.256 16.8403 111.122 16.7056C111.006 16.571 110.833 16.5036 110.602 16.5036C110.16 16.5036 109.746 16.7056 109.362 17.1095C108.977 17.4942 108.669 18.0232 108.438 18.6964C108.208 19.3697 108.092 20.1102 108.092 20.9181C108.092 23.1493 109.064 24.265 111.006 24.265C111.795 24.265 112.641 24.0053 113.545 23.486C114.469 22.9474 115.373 22.1491 116.257 21.0912C116.488 20.8219 116.748 20.6873 117.036 20.6873C117.286 20.6873 117.479 20.8027 117.613 21.0335C117.767 21.2643 117.844 21.5817 117.844 21.9856C117.844 22.7166 117.662 23.3128 117.296 23.7745C116.392 24.8901 115.305 25.7557 114.036 26.3712C112.785 26.9675 111.574 27.2656 110.4 27.2656Z" fill="black"/>
<path d="M131.525 20.6873C131.775 20.6873 131.968 20.8027 132.102 21.0335C132.256 21.2643 132.333 21.5817 132.333 21.9856C132.333 22.755 132.15 23.3513 131.785 23.7745C130.9 24.7939 129.986 25.6307 129.044 26.2846C128.121 26.9386 127.063 27.2656 125.87 27.2656C124.889 27.2656 124.148 26.9867 123.648 26.4289C123.148 25.8519 122.898 25.0248 122.898 23.9476C122.898 23.409 123.033 22.4473 123.302 21.0623C123.552 19.8505 123.677 19.0138 123.677 18.5522C123.677 18.2444 123.571 18.0905 123.36 18.0905C123.11 18.0905 122.754 18.4175 122.292 19.0715C121.831 19.7063 121.369 20.5526 120.907 21.6105C120.446 22.6685 120.071 23.7841 119.782 24.9574C119.417 26.4962 118.513 27.2656 117.07 27.2656C116.493 27.2656 116.108 27.0637 115.916 26.6597C115.743 26.2366 115.656 25.4864 115.656 24.4092C115.656 23.7937 115.666 23.3032 115.685 22.9378L115.714 20.6296C115.714 17.6674 116.012 14.5801 116.608 11.3679C117.224 8.15565 118.118 5.46274 119.292 3.28919C120.484 1.0964 121.908 0 123.562 0C124.447 0 125.158 0.3847 125.697 1.1541C126.255 1.90427 126.534 2.88525 126.534 4.09706C126.534 6.03979 125.966 8.05947 124.831 10.1561C123.696 12.2335 121.85 14.6667 119.292 17.4558C119.234 18.456 119.205 19.4851 119.205 20.543C119.84 18.908 120.542 17.5808 121.311 16.5613C122.1 15.5227 122.869 14.7821 123.62 14.3397C124.389 13.8973 125.091 13.6761 125.726 13.6761C126.976 13.6761 127.601 14.3012 127.601 15.5515C127.601 16.3017 127.39 17.6577 126.966 19.6197C126.601 21.2932 126.418 22.3992 126.418 22.9378C126.418 23.7072 126.697 24.0919 127.255 24.0919C127.64 24.0919 128.092 23.861 128.611 23.3994C129.15 22.9185 129.861 22.1491 130.746 21.0912C130.977 20.8219 131.237 20.6873 131.525 20.6873ZM122.956 2.8564C122.61 2.8564 122.225 3.35651 121.802 4.35673C121.379 5.33772 120.965 6.67455 120.561 8.36723C120.176 10.0407 119.859 11.868 119.609 13.8492C120.802 12.4451 121.783 10.9159 122.552 9.26166C123.341 7.60745 123.735 6.10712 123.735 4.76067C123.735 4.14515 123.668 3.67389 123.533 3.34689C123.398 3.0199 123.206 2.8564 122.956 2.8564Z" fill="black"/>
<path d="M133.313 27.2656C132.216 27.2656 131.322 26.8328 130.629 25.9673C129.956 25.1017 129.62 23.9668 129.62 22.5627C129.62 21.0239 129.975 19.5716 130.687 18.2059C131.399 16.821 132.341 15.715 133.515 14.8879C134.707 14.0416 135.967 13.6184 137.294 13.6184C137.717 13.6184 137.996 13.7049 138.131 13.8781C138.285 14.0319 138.41 14.3205 138.506 14.7436C138.872 14.6667 139.275 14.6282 139.718 14.6282C140.18 14.6282 140.535 14.7436 140.785 14.9745C141.035 15.2053 141.161 15.5323 141.161 15.9554C141.161 16.3978 141.064 17.1672 140.872 18.2636C140.66 19.437 140.497 20.5622 140.381 21.6394C140.266 22.6973 140.208 23.8899 140.208 25.2171C140.208 25.948 140.055 26.477 139.747 26.804C139.458 27.1118 138.977 27.2656 138.304 27.2656C137.65 27.2656 137.16 27.1118 136.833 26.804C136.525 26.477 136.371 25.9577 136.371 25.246L136.4 24.7843C135.804 26.4385 134.774 27.2656 133.313 27.2656ZM134.438 24.3515C134.976 24.3515 135.467 23.9764 135.909 23.2263C136.352 22.4761 136.746 21.1393 137.092 19.2158L137.641 16.3017C136.852 16.3209 136.121 16.6287 135.448 17.225C134.774 17.802 134.236 18.5714 133.832 19.5332C133.428 20.4949 133.226 21.5144 133.226 22.5915C133.226 23.1686 133.332 23.611 133.543 23.9187C133.774 24.2073 134.072 24.3515 134.438 24.3515Z" fill="black"/>
<path d="M21.2509 45.9572V47.8591H15.7847V45.9572H21.2509ZM16.6652 37.6029V47.8591H14.1927V37.6029H16.6652ZM20.5465 41.6744V43.5129H15.7847V41.6744H20.5465ZM21.272 37.6029V39.5119H15.7847V37.6029H21.272Z" fill="black"/>
<path d="M27.5483 45.1331C27.5483 44.9734 27.5248 44.8302 27.4779 44.7034C27.4309 44.5719 27.344 44.4498 27.2172 44.3371C27.0904 44.2244 26.9073 44.1117 26.6678 43.999C26.433 43.8816 26.1231 43.7595 25.738 43.6327C25.2872 43.4824 24.8528 43.3133 24.4348 43.1255C24.0169 42.933 23.6435 42.7099 23.3148 42.4563C22.9861 42.198 22.7255 41.8975 22.5329 41.5547C22.3404 41.2072 22.2441 40.8033 22.2441 40.3431C22.2441 39.9017 22.3427 39.5048 22.54 39.1526C22.7372 38.7957 23.0119 38.4928 23.3641 38.244C23.721 37.9904 24.139 37.7978 24.618 37.6663C25.097 37.5302 25.6206 37.4621 26.1888 37.4621C26.9402 37.4621 27.6023 37.5936 28.1752 37.8565C28.7528 38.1148 29.2037 38.4835 29.5277 38.9624C29.8564 39.4367 30.0208 39.9979 30.0208 40.646H27.5624C27.5624 40.3877 27.5084 40.1599 27.4004 39.9627C27.2971 39.7655 27.1398 39.6105 26.9284 39.4978C26.7171 39.3851 26.4518 39.3287 26.1325 39.3287C25.8225 39.3287 25.5619 39.3757 25.3506 39.4696C25.1392 39.5635 24.9796 39.6903 24.8716 39.85C24.7636 40.005 24.7095 40.1764 24.7095 40.3642C24.7095 40.5192 24.7518 40.6601 24.8363 40.7869C24.9256 40.909 25.05 41.024 25.2097 41.132C25.374 41.24 25.5713 41.3433 25.8014 41.442C26.0362 41.5406 26.2992 41.6368 26.5903 41.7308C27.1351 41.9045 27.6188 42.0994 28.0414 42.3154C28.4687 42.5267 28.828 42.7686 29.1191 43.041C29.415 43.3086 29.6381 43.6139 29.7883 43.9567C29.9433 44.2995 30.0208 44.6869 30.0208 45.119C30.0208 45.5792 29.9316 45.9877 29.7531 46.3446C29.5747 46.7015 29.3187 47.0044 28.9853 47.2533C28.6519 47.4975 28.2527 47.683 27.7878 47.8098C27.3229 47.9366 26.804 48 26.2311 48C25.7051 48 25.1862 47.9342 24.6743 47.8028C24.1672 47.6666 23.7069 47.4599 23.2937 47.1829C22.8804 46.9011 22.5494 46.5419 22.3005 46.1051C22.0563 45.6637 21.9342 45.1401 21.9342 44.5343H24.4137C24.4137 44.8349 24.4536 45.0884 24.5334 45.2951C24.6133 45.5017 24.7307 45.6684 24.8857 45.7952C25.0406 45.9173 25.2308 46.0065 25.4562 46.0629C25.6816 46.1145 25.9399 46.1404 26.2311 46.1404C26.5457 46.1404 26.7993 46.0957 26.9918 46.0065C27.1844 45.9126 27.3252 45.7905 27.4145 45.6402C27.5037 45.4853 27.5483 45.3162 27.5483 45.1331Z" fill="black"/>
<path d="M37.1282 44.3864H39.5937C39.5608 45.1002 39.3683 45.7295 39.0161 46.2742C38.6639 46.8189 38.1755 47.2439 37.5509 47.5492C36.931 47.8497 36.1984 48 35.3531 48C34.6675 48 34.0547 47.8849 33.5146 47.6548C32.9793 47.4247 32.5238 47.0937 32.1481 46.6616C31.7771 46.2296 31.493 45.706 31.2958 45.0908C31.1032 44.4756 31.007 43.7829 31.007 43.0128V42.4563C31.007 41.6862 31.1079 40.9935 31.3098 40.3783C31.5165 39.7584 31.8076 39.2325 32.1833 38.8004C32.5637 38.3637 33.0192 38.0303 33.5499 37.8002C34.0805 37.5701 34.6699 37.455 35.3179 37.455C36.2102 37.455 36.9639 37.6147 37.5791 37.934C38.1943 38.2533 38.6709 38.6924 39.009 39.2513C39.3471 39.8054 39.5467 40.437 39.6078 41.1461H37.1423C37.1329 40.761 37.0672 40.4394 36.9451 40.1811C36.823 39.9181 36.6305 39.7209 36.3675 39.5894C36.1045 39.4579 35.7547 39.3921 35.3179 39.3921C35.0127 39.3921 34.7474 39.4485 34.5219 39.5612C34.2965 39.6739 34.1087 39.8523 33.9584 40.0965C33.8081 40.3407 33.6954 40.6577 33.6203 41.0475C33.5499 41.4326 33.5146 41.8975 33.5146 42.4422V43.0128C33.5146 43.5575 33.5475 44.0224 33.6133 44.4075C33.679 44.7926 33.7847 45.1072 33.9302 45.3514C34.0758 45.5956 34.2637 45.7764 34.4938 45.8938C34.7286 46.0065 35.015 46.0629 35.3531 46.0629C35.7288 46.0629 36.0458 46.0042 36.3041 45.8868C36.5624 45.7647 36.762 45.5815 36.9028 45.3373C37.0437 45.0884 37.1189 44.7715 37.1282 44.3864Z" fill="black"/>
<path d="M49.4413 42.5267V42.9423C49.4413 43.7266 49.3309 44.431 49.1102 45.0556C48.8942 45.6754 48.5866 46.2061 48.1874 46.6475C47.7883 47.0843 47.3163 47.42 46.7716 47.6548C46.2268 47.8849 45.6257 48 44.9683 48C44.3062 48 43.7004 47.8849 43.1509 47.6548C42.6062 47.42 42.1319 47.0843 41.728 46.6475C41.3289 46.2061 41.0189 45.6754 40.7982 45.0556C40.5822 44.431 40.4742 43.7266 40.4742 42.9423V42.5267C40.4742 41.7425 40.5822 41.0381 40.7982 40.4135C41.0189 39.789 41.3265 39.2583 41.721 38.8216C42.1201 38.3801 42.5921 38.0444 43.1368 37.8143C43.6863 37.5795 44.2921 37.4621 44.9542 37.4621C45.6117 37.4621 46.2128 37.5795 46.7575 37.8143C47.3069 38.0444 47.7812 38.3801 48.1804 38.8216C48.5796 39.2583 48.8895 39.789 49.1102 40.4135C49.3309 41.0381 49.4413 41.7425 49.4413 42.5267ZM46.9336 42.9423V42.5127C46.9336 42.0055 46.889 41.5594 46.7998 41.1743C46.7152 40.7845 46.5884 40.4581 46.4194 40.1952C46.2503 39.9322 46.0413 39.7349 45.7925 39.6035C45.5483 39.4673 45.2688 39.3992 44.9542 39.3992C44.6255 39.3992 44.339 39.4673 44.0948 39.6035C43.8506 39.7349 43.6464 39.9322 43.482 40.1952C43.3176 40.4581 43.1932 40.7845 43.1087 41.1743C43.0288 41.5594 42.9889 42.0055 42.9889 42.5127V42.9423C42.9889 43.4448 43.0288 43.891 43.1087 44.2807C43.1932 44.6658 43.3176 44.9922 43.482 45.2598C43.6511 45.5275 43.8577 45.7295 44.1019 45.8656C44.3508 46.0018 44.6396 46.0699 44.9683 46.0699C45.2829 46.0699 45.5624 46.0018 45.8065 45.8656C46.0507 45.7295 46.255 45.5275 46.4194 45.2598C46.5884 44.9922 46.7152 44.6658 46.7998 44.2807C46.889 43.891 46.9336 43.4448 46.9336 42.9423Z" fill="black"/>
<path d="M57.4997 45.9572V47.8591H52.3153V45.9572H57.4997ZM53.1958 37.6029V47.8591H50.7233V37.6029H53.1958Z" fill="black"/>
<path d="M63.0293 39.7584L60.5287 47.8591H57.873L61.6416 37.6029H63.3252L63.0293 39.7584ZM65.1003 47.8591L62.5926 39.7584L62.2685 37.6029H63.9732L67.7629 47.8591H65.1003ZM65.0016 44.0342V45.9431H59.7397V44.0342H65.0016Z" fill="black"/>
<path d="M75.441 47.8591H73.1657L73.1798 45.9572H75.441C75.9106 45.9572 76.3074 45.8445 76.6314 45.6191C76.9601 45.3937 77.209 45.0579 77.3781 44.6118C77.5518 44.161 77.6387 43.6068 77.6387 42.9494V42.5056C77.6387 42.0125 77.5894 41.5805 77.4908 41.2095C77.3969 40.8338 77.256 40.5215 77.0681 40.2726C76.8803 40.0191 76.6455 39.8289 76.3637 39.7021C76.0867 39.5753 75.7673 39.5119 75.4057 39.5119H73.1235V37.6029H75.4057C76.1008 37.6029 76.7371 37.7227 77.3147 37.9622C77.897 38.197 78.3995 38.5351 78.8221 38.9765C79.2495 39.4133 79.5782 39.9322 79.8083 40.5333C80.0431 41.1297 80.1605 41.7918 80.1605 42.5197V42.9494C80.1605 43.6726 80.0431 44.3347 79.8083 44.9358C79.5782 45.5369 79.2518 46.0558 78.8292 46.4926C78.4065 46.9293 77.9064 47.2674 77.3288 47.5069C76.7559 47.7417 76.1266 47.8591 75.441 47.8591ZM74.5816 37.6029V47.8591H72.1091V37.6029H74.5816Z" fill="black"/>
<path d="M88.5077 45.9572V47.8591H83.0415V45.9572H88.5077ZM83.922 37.6029V47.8591H81.4496V37.6029H83.922ZM87.8033 41.6744V43.5129H83.0415V41.6744H87.8033ZM88.5288 37.6029V39.5119H83.0415V37.6029H88.5288Z" fill="black"/>
<path d="M97.1931 44.64V37.6029H99.6585V44.64C99.6585 45.3256 99.5012 45.9196 99.1865 46.4221C98.8766 46.9246 98.4539 47.3144 97.9186 47.5914C97.3879 47.8638 96.7915 48 96.1294 48C95.4438 48 94.8333 47.8849 94.2979 47.6548C93.7673 47.4247 93.3493 47.0702 93.0441 46.5912C92.7436 46.1122 92.5933 45.5017 92.5933 44.7597H95.0728C95.0728 45.1072 95.1127 45.3796 95.1925 45.5768C95.2724 45.7694 95.3898 45.9056 95.5447 45.9854C95.7044 46.0605 95.8993 46.0981 96.1294 46.0981C96.3548 46.0981 96.545 46.0417 96.7 45.929C96.8596 45.8116 96.9817 45.6449 97.0663 45.4289C97.1508 45.2082 97.1931 44.9452 97.1931 44.64Z" fill="black"/>
<path d="M105.421 39.7584L102.92 47.8591H100.264L104.033 37.6029H105.716L105.421 39.7584ZM107.491 47.8591L104.984 39.7584L104.66 37.6029H106.364L110.154 47.8591H107.491ZM107.393 44.0342V45.9431H102.131V44.0342H107.393Z" fill="black"/>
<path d="M118.586 45.9572V47.8591H111.161V45.9572H118.586ZM118.537 38.8709L112.387 47.8591H110.598V46.556L116.818 37.6029H118.537V38.8709ZM117.741 37.6029V39.5119H110.563V37.6029H117.741Z" fill="black"/>
<path d="M127.391 45.9572V47.8591H119.967V45.9572H127.391ZM127.342 38.8709L121.192 47.8591H119.403V46.556L125.623 37.6029H127.342V38.8709ZM126.546 37.6029V39.5119H119.368V37.6029H126.546Z" fill="black"/>
<path d="M13.4109 32.9821H127.018V34.3345H13.4109V32.9821Z" fill="#ED4D1B"/>
</svg>
